# xmcd CD database file
#
# Track frame offsets:
#	150
#	73128
#	126900
#	199651
#	311964
#
# Disc length: 4364 seconds
#
# Revision: 0
# Processed by: cddbd v1.5.1PL2 Copyright (c) Steve Scherf et al.
# Submitted via: CDex 1.51
#
DISCID=4c110a05
DTITLE=大谷直人指揮 ジャパン・ヴィルトゥオーゾ・シンフォニー・オーケストラ - ベートーヴェン:交響曲第9番ニ短調作品125「合唱付」
DYEAR=1900
DGENRE=Classical
TTITLE0=第1楽章:アレグロ・マ・ノン・トロッポ・ウン・ポーコ・マエストーソ ニ短調 4分の2拍子
TTITLE1=第2各章:モルト・ヴィヴァーチェ ニ短調 4分の3拍子
TTITLE2=第3楽章:アダージョ・モルト・カンタービレ 変ロ長調 4分の4拍子
TTITLE3=第4楽章:プレスト ニ短調アレグロ・アッサイ ニ短調 4分の4拍子
TTITLE4=「蛍の光(作詞者不詳、スコットランド民謡)」
EXTD=
EXTT0=
EXTT1=
EXTT2=
EXTT3=
EXTT4=
PLAYORDER=
